<svg width="49" height="30" viewBox="0 0 49 30" fill="none" xmlns="http://www.w3.org/2000/svg">
<path d="M10.0367 29.0435C6.79539 29.0435 4.41939 28.2882 2.90872 26.7775C1.39805 25.2668 0.642719 22.8908 0.642719 19.6495V9.57351C0.642719 6.31751 1.39805 3.94151 2.90872 2.44551C4.43405 0.934844 6.81005 0.194177 10.0367 0.22351H12.6767C15.9327 0.22351 18.3087 0.978843 19.8047 2.48951C21.3154 3.98551 22.0707 6.36151 22.0707 9.61751V19.6495C22.0707 22.8908 21.3154 25.2668 19.8047 26.7775C18.3087 28.2882 15.9327 29.0435 12.6767 29.0435H10.0367ZM10.0367 26.2715H12.6767C14.3341 26.2715 15.6394 26.0588 16.5927 25.6335C17.5607 25.2082 18.2501 24.5188 18.6607 23.5655C19.0861 22.5975 19.2987 21.2922 19.2987 19.6495V9.61751C19.2987 7.96018 19.0861 6.65484 18.6607 5.70151C18.2501 4.73351 17.5607 4.04418 16.5927 3.63351C15.6394 3.20818 14.3341 2.99551 12.6767 2.99551H10.0367C8.39405 2.98084 7.08872 3.17884 6.12072 3.58951C5.16739 3.98551 4.47805 4.66751 4.05272 5.63551C3.62739 6.60351 3.41472 7.91618 3.41472 9.57351V19.6495C3.41472 21.2922 3.62005 22.5975 4.03072 23.5655C4.45605 24.5188 5.15272 25.2082 6.12072 25.6335C7.08872 26.0588 8.39405 26.2715 10.0367 26.2715ZM10.9167 16.5035C9.96339 16.5035 9.48672 16.0195 9.48672 15.0515V14.1275C9.48672 13.1888 9.96339 12.7195 10.9167 12.7195H11.8187C12.7427 12.7195 13.2047 13.1888 13.2047 14.1275V15.0515C13.2047 16.0195 12.7427 16.5035 11.8187 16.5035H10.9167ZM35.2047 28.9995C34.2807 28.9995 33.8187 28.5375 33.8187 27.6135V3.74351L34.8527 3.41351L30.0567 8.03351C29.7634 8.31218 29.4554 8.47351 29.1327 8.51751C28.8247 8.54684 28.5167 8.40751 28.2087 8.09951C27.6221 7.48351 27.6441 6.84551 28.2747 6.18551L33.7087 0.861511C34.1634 0.392176 34.7354 0.157509 35.4247 0.157509C36.2021 0.157509 36.5907 0.61951 36.5907 1.54351V27.6135C36.5907 28.5375 36.1287 28.9995 35.2047 28.9995Z" fill="url(#paint0_linear_2_193)"/>
<defs>
<linearGradient id="paint0_linear_2_193" x1="-2.3125" y1="6.38936" x2="41.6302" y2="7.44352" gradientUnits="userSpaceOnUse">
<stop stop-color="#375EFF"/>
<stop offset="0.111111" stop-color="#8453F0"/>
<stop offset="0.222222" stop-color="#AD46DF"/>
<stop offset="0.333333" stop-color="#CB3ACB"/>
<stop offset="0.444444" stop-color="#E032B7"/>
<stop offset="0.555556" stop-color="#EF30A2"/>
<stop offset="0.666667" stop-color="#F9368F"/>
<stop offset="0.777778" stop-color="#FE427D"/>
<stop offset="0.888889" stop-color="#FF516C"/>
<stop offset="1" stop-color="#FD605E"/>
</linearGradient>
</defs>
</svg>
