<svg width="49" height="30" viewBox="0 0 49 30"  fill="none" xmlns="http://www.w3.org/2000/svg">
<path d="M9.66953 29.0435C6.4282 29.0435 4.0522 28.2882 2.54153 26.7775C1.03086 25.2668 0.275531 22.8908 0.275531 19.6495V9.57351C0.275531 6.31751 1.03086 3.94151 2.54153 2.44551C4.06686 0.934844 6.44287 0.194177 9.66953 0.22351H12.3095C15.5655 0.22351 17.9415 0.978843 19.4375 2.48951C20.9482 3.98551 21.7035 6.36151 21.7035 9.61751V19.6495C21.7035 22.8908 20.9482 25.2668 19.4375 26.7775C17.9415 28.2882 15.5655 29.0435 12.3095 29.0435H9.66953ZM9.66953 26.2715H12.3095C13.9669 26.2715 15.2722 26.0588 16.2255 25.6335C17.1935 25.2082 17.8829 24.5188 18.2935 23.5655C18.7189 22.5975 18.9315 21.2922 18.9315 19.6495V9.61751C18.9315 7.96018 18.7189 6.65484 18.2935 5.70151C17.8829 4.73351 17.1935 4.04418 16.2255 3.63351C15.2722 3.20818 13.9669 2.99551 12.3095 2.99551H9.66953C8.02687 2.98084 6.72153 3.17884 5.75353 3.58951C4.8002 3.98551 4.11086 4.66751 3.68553 5.63551C3.2602 6.60351 3.04753 7.91618 3.04753 9.57351V19.6495C3.04753 21.2922 3.25286 22.5975 3.66353 23.5655C4.08887 24.5188 4.78553 25.2082 5.75353 25.6335C6.72153 26.0588 8.02687 26.2715 9.66953 26.2715ZM10.5495 16.5035C9.5962 16.5035 9.11953 16.0195 9.11953 15.0515V14.1275C9.11953 13.1888 9.5962 12.7195 10.5495 12.7195H11.4515C12.3755 12.7195 12.8375 13.1888 12.8375 14.1275V15.0515C12.8375 16.0195 12.3755 16.5035 11.4515 16.5035H10.5495ZM45.9372 28.9995H29.0852C28.1319 28.9995 27.6552 28.5375 27.6552 27.6135C27.6552 25.8388 27.9119 24.3208 28.4252 23.0595C28.9386 21.7835 29.6499 20.6762 30.5592 19.7375C31.4686 18.7988 32.5246 17.9482 33.7272 17.1855C34.9299 16.4082 36.2132 15.6308 37.5772 14.8535C39.0879 13.9882 40.3566 13.2255 41.3832 12.5655C42.4246 11.9055 43.2019 11.2162 43.7152 10.4975C44.2432 9.76418 44.5072 8.87684 44.5072 7.83551C44.5072 5.97284 44.1552 4.68951 43.4512 3.98551C42.7472 3.28151 41.4639 2.92951 39.6012 2.92951H34.8932C33.3092 2.92951 32.1432 3.18618 31.3952 3.69951C30.6619 4.21284 30.2219 5.12218 30.0752 6.42751C30.0166 6.86751 29.8772 7.20484 29.6572 7.43951C29.4372 7.67418 29.0999 7.79151 28.6452 7.79151C28.1906 7.79151 27.8386 7.66684 27.5892 7.41751C27.3546 7.16818 27.2519 6.80884 27.2812 6.33951C27.5012 4.22751 28.2272 2.67284 29.4592 1.67551C30.7059 0.663509 32.5172 0.157509 34.8932 0.157509H39.6012C42.2412 0.157509 44.1772 0.780843 45.4092 2.02751C46.6559 3.25951 47.2792 5.19551 47.2792 7.83551C47.2792 9.43418 46.8979 10.7762 46.1352 11.8615C45.3726 12.9322 44.3606 13.8855 43.0992 14.7215C41.8379 15.5575 40.4519 16.4008 38.9412 17.2515C37.3132 18.1902 35.8979 19.0555 34.6952 19.8475C33.5072 20.6395 32.5539 21.5268 31.8352 22.5095C31.1312 23.4922 30.6912 24.7315 30.5152 26.2275H45.9372C46.8612 26.2275 47.3232 26.6895 47.3232 27.6135C47.3232 28.5375 46.8612 28.9995 45.9372 28.9995Z" fill="url(#paint0_linear_2_199)"/>
<defs>
<linearGradient id="paint0_linear_2_199" x1="-2.17188" y1="6.38936" x2="50.7453" y2="7.91848" gradientUnits="userSpaceOnUse">
<stop stop-color="#375EFF"/>
<stop offset="0.111111" stop-color="#8453F0"/>
<stop offset="0.222222" stop-color="#AD46DF"/>
<stop offset="0.333333" stop-color="#CB3ACB"/>
<stop offset="0.444444" stop-color="#E032B7"/>
<stop offset="0.555556" stop-color="#EF30A2"/>
<stop offset="0.666667" stop-color="#F9368F"/>
<stop offset="0.777778" stop-color="#FE427D"/>
<stop offset="0.888889" stop-color="#FF516C"/>
<stop offset="1" stop-color="#FD605E"/>
</linearGradient>
</defs>
</svg>
