<svg width="49" height="30" viewBox="0 0 49 30"  fill="none" xmlns="http://www.w3.org/2000/svg">
<path d="M9.77891 29.0318C6.53757 29.0318 4.16157 28.2765 2.65091 26.7658C1.14024 25.2551 0.384906 22.8791 0.384906 19.6378V9.56179C0.384906 6.30579 1.14024 3.92979 2.65091 2.43379C4.17624 0.923125 6.55224 0.182458 9.77891 0.211791H12.4189C15.6749 0.211791 18.0509 0.967125 19.5469 2.47779C21.0576 3.97379 21.8129 6.34979 21.8129 9.60579V19.6378C21.8129 22.8791 21.0576 25.2551 19.5469 26.7658C18.0509 28.2765 15.6749 29.0318 12.4189 29.0318H9.77891ZM9.77891 26.2598H12.4189C14.0762 26.2598 15.3816 26.0471 16.3349 25.6218C17.3029 25.1965 17.9922 24.5071 18.4029 23.5538C18.8282 22.5858 19.0409 21.2805 19.0409 19.6378V9.60579C19.0409 7.94846 18.8282 6.64313 18.4029 5.68979C17.9922 4.72179 17.3029 4.03246 16.3349 3.62179C15.3816 3.19646 14.0762 2.98379 12.4189 2.98379H9.77891C8.13624 2.96912 6.83091 3.16712 5.86291 3.57779C4.90957 3.97379 4.22024 4.65579 3.79491 5.62379C3.36957 6.59179 3.15691 7.90446 3.15691 9.56179V19.6378C3.15691 21.2805 3.36224 22.5858 3.77291 23.5538C4.19824 24.5071 4.89491 25.1965 5.86291 25.6218C6.83091 26.0471 8.13624 26.2598 9.77891 26.2598ZM10.6589 16.4918C9.70557 16.4918 9.22891 16.0078 9.22891 15.0398V14.1158C9.22891 13.1771 9.70557 12.7078 10.6589 12.7078H11.5609C12.4849 12.7078 12.9469 13.1771 12.9469 14.1158V15.0398C12.9469 16.0078 12.4849 16.4918 11.5609 16.4918H10.6589ZM35.6186 28.9658C33.0959 28.9658 31.1746 28.4305 29.8546 27.3598C28.5493 26.2891 27.7866 24.6171 27.5666 22.3438C27.5373 21.8745 27.6399 21.5151 27.8746 21.2658C28.1239 21.0165 28.4759 20.8918 28.9306 20.8918C29.7813 20.8918 30.2506 21.3538 30.3386 22.2778C30.4999 23.7298 30.9766 24.7491 31.7686 25.3358C32.5753 25.9078 33.8586 26.1938 35.6186 26.1938H40.6346C42.6586 26.1938 44.0519 25.8125 44.8146 25.0498C45.5919 24.2725 45.9806 22.8865 45.9806 20.8918C45.9806 18.8971 45.5919 17.5185 44.8146 16.7558C44.0519 15.9785 42.6586 15.5898 40.6346 15.5898H36.7846C35.8606 15.5898 35.3986 15.1278 35.3986 14.2038C35.3986 13.2798 35.8606 12.8178 36.7846 12.8178H41.5806C42.9886 12.8031 43.9566 12.3705 44.4846 11.5198C45.0126 10.6691 45.2766 9.43712 45.2766 7.82379C45.2766 5.96112 44.9246 4.67779 44.2206 3.97379C43.5166 3.26979 42.2333 2.91779 40.3706 2.91779H36.1026C34.5186 2.91779 33.3526 3.17446 32.6046 3.68779C31.8713 4.20113 31.4313 5.11046 31.2846 6.41579C31.1819 7.32513 30.7053 7.77979 29.8546 7.77979C29.3999 7.77979 29.0479 7.65513 28.7986 7.40579C28.5639 7.15646 28.4686 6.79713 28.5126 6.32779C28.7326 4.21579 29.4586 2.66113 30.6906 1.66379C31.9373 0.651791 33.7413 0.145791 36.1026 0.145791H40.3706C43.0106 0.145791 44.9466 0.769124 46.1786 2.01579C47.4253 3.24779 48.0486 5.18379 48.0486 7.82379C48.0486 10.6985 47.0879 12.6858 45.1666 13.7858C46.3986 14.3871 47.3006 15.2745 47.8726 16.4478C48.4593 17.6065 48.7526 19.0878 48.7526 20.8918C48.7526 23.6638 48.0999 25.7025 46.7946 27.0078C45.4893 28.3131 43.4359 28.9658 40.6346 28.9658H35.6186Z" fill="url(#paint0_linear_2_196)"/>
<defs>
<linearGradient id="paint0_linear_2_196" x1="-2.14063" y1="6.37764" x2="52.7699" y2="8.02424" gradientUnits="userSpaceOnUse">
<stop stop-color="#375EFF"/>
<stop offset="0.111111" stop-color="#8453F0"/>
<stop offset="0.222222" stop-color="#AD46DF"/>
<stop offset="0.333333" stop-color="#CB3ACB"/>
<stop offset="0.444444" stop-color="#E032B7"/>
<stop offset="0.555556" stop-color="#EF30A2"/>
<stop offset="0.666667" stop-color="#F9368F"/>
<stop offset="0.777778" stop-color="#FE427D"/>
<stop offset="0.888889" stop-color="#FF516C"/>
<stop offset="1" stop-color="#FD605E"/>
</linearGradient>
</defs>
</svg>
