<svg width="49" height="30" viewBox="0 0 49 30" fill="none" xmlns="http://www.w3.org/2000/svg">
<path d="M9.62656 29.0318C6.38523 29.0318 4.00923 28.2765 2.49856 26.7658C0.987896 25.2551 0.232563 22.8791 0.232563 19.6378V9.56179C0.232563 6.30579 0.987896 3.92979 2.49856 2.43379C4.0239 0.923125 6.3999 0.182458 9.62656 0.211791H12.2666C15.5226 0.211791 17.8986 0.967125 19.3946 2.47779C20.9052 3.97379 21.6606 6.34979 21.6606 9.60579V19.6378C21.6606 22.8791 20.9052 25.2551 19.3946 26.7658C17.8986 28.2765 15.5226 29.0318 12.2666 29.0318H9.62656ZM9.62656 26.2598H12.2666C13.9239 26.2598 15.2292 26.0471 16.1826 25.6218C17.1506 25.1965 17.8399 24.5071 18.2506 23.5538C18.6759 22.5858 18.8886 21.2805 18.8886 19.6378V9.60579C18.8886 7.94846 18.6759 6.64313 18.2506 5.68979C17.8399 4.72179 17.1506 4.03246 16.1826 3.62179C15.2292 3.19646 13.9239 2.98379 12.2666 2.98379H9.62656C7.9839 2.96912 6.67856 3.16712 5.71056 3.57779C4.75723 3.97379 4.0679 4.65579 3.64256 5.62379C3.21723 6.59179 3.00456 7.90446 3.00456 9.56179V19.6378C3.00456 21.2805 3.2099 22.5858 3.62056 23.5538C4.0459 24.5071 4.74256 25.1965 5.71056 25.6218C6.67856 26.0471 7.9839 26.2598 9.62656 26.2598ZM10.5066 16.4918C9.55323 16.4918 9.07656 16.0078 9.07656 15.0398V14.1158C9.07656 13.1771 9.55323 12.7078 10.5066 12.7078H11.4086C12.3326 12.7078 12.7946 13.1771 12.7946 14.1158V15.0398C12.7946 16.0078 12.3326 16.4918 11.4086 16.4918H10.5066ZM43.2763 28.9878C42.3523 28.9878 41.8903 28.5258 41.8903 27.6018L42.0223 3.68779L42.9243 3.26979L29.6583 20.7598L29.3063 20.0778L46.9943 20.0338C47.4489 20.0338 47.7936 20.1585 48.0282 20.4078C48.2629 20.6571 48.3803 20.9945 48.3803 21.4198C48.3803 22.3438 47.9183 22.8058 46.9943 22.8058H27.9203C26.9963 22.8058 26.5343 22.3438 26.5343 21.4198C26.5343 20.9798 26.7249 20.4958 27.1063 19.9678L41.5163 1.00379C41.7949 0.637125 42.0736 0.402459 42.3523 0.299793C42.6456 0.197125 42.9903 0.145791 43.3863 0.145791C44.3249 0.145791 44.7943 0.607791 44.7943 1.53179L44.6623 27.6018C44.6623 28.5258 44.2003 28.9878 43.2763 28.9878Z" fill="url(#paint0_linear_2_202)"/>
<defs>
<linearGradient id="paint0_linear_2_202" x1="-3.15625" y1="6.37764" x2="50.7577" y2="7.96496" gradientUnits="userSpaceOnUse">
<stop stop-color="#375EFF"/>
<stop offset="0.111111" stop-color="#8453F0"/>
<stop offset="0.222222" stop-color="#AD46DF"/>
<stop offset="0.333333" stop-color="#CB3ACB"/>
<stop offset="0.444444" stop-color="#E032B7"/>
<stop offset="0.555556" stop-color="#EF30A2"/>
<stop offset="0.666667" stop-color="#F9368F"/>
<stop offset="0.777778" stop-color="#FE427D"/>
<stop offset="0.888889" stop-color="#FF516C"/>
<stop offset="1" stop-color="#FD605E"/>
</linearGradient>
</defs>
</svg>
