<svg width="21" height="21" viewBox="0 0 21 21" fill="none" xmlns="http://www.w3.org/2000/svg">
<path d="M10.6643 7.40957C8.8706 7.40957 7.40676 8.87343 7.40676 10.6672C7.40676 12.461 8.8706 13.9249 10.6643 13.9249C12.4581 13.9249 13.9219 12.461 13.9219 10.6672C13.9219 8.87343 12.4581 7.40957 10.6643 7.40957ZM20.4347 10.6672C20.4347 9.31821 20.4469 7.98143 20.3711 6.63487C20.2954 5.07081 19.9386 3.6827 18.7949 2.53898C17.6487 1.39282 16.2631 1.03846 14.6991 0.962704C13.3501 0.886945 12.0133 0.899164 10.6668 0.899164C9.31781 0.899164 7.98105 0.886945 6.63452 0.962704C5.07049 1.03846 3.68241 1.39526 2.53871 2.53898C1.39257 3.68515 1.03822 5.07081 0.962459 6.63487C0.886701 7.98387 0.89892 9.32066 0.89892 10.6672C0.89892 12.0138 0.886701 13.353 0.962459 14.6996C1.03822 16.2636 1.39501 17.6517 2.53871 18.7954C3.68485 19.9416 5.07049 20.296 6.63452 20.3717C7.9835 20.4475 9.32025 20.4353 10.6668 20.4353C12.0158 20.4353 13.3525 20.4475 14.6991 20.3717C16.2631 20.296 17.6512 19.9392 18.7949 18.7954C19.941 17.6493 20.2954 16.2636 20.3711 14.6996C20.4493 13.353 20.4347 12.0162 20.4347 10.6672V10.6672ZM10.6643 15.6795C7.89063 15.6795 5.65211 13.441 5.65211 10.6672C5.65211 7.89345 7.89063 5.65489 10.6643 5.65489C13.4381 5.65489 15.6766 7.89345 15.6766 10.6672C15.6766 13.441 13.4381 15.6795 10.6643 15.6795ZM15.8819 6.62021C15.2343 6.62021 14.7113 6.09722 14.7113 5.44961C14.7113 4.80199 15.2343 4.279 15.8819 4.279C16.5295 4.279 17.0524 4.80199 17.0524 5.44961C17.0526 5.60338 17.0225 5.75569 16.9637 5.8978C16.905 6.03991 16.8188 6.16904 16.71 6.27778C16.6013 6.38652 16.4722 6.47273 16.33 6.53149C16.1879 6.59025 16.0356 6.6204 15.8819 6.62021V6.62021Z" fill="#2C2E34"/>
</svg>
