<svg width="21" height="14" viewBox="0 0 21 14" fill="none" xmlns="http://www.w3.org/2000/svg">
<path d="M19.8393 2.09479C19.7262 1.69128 19.5057 1.32596 19.2014 1.03768C18.8886 0.740523 18.5051 0.527962 18.0872 0.420057C16.5232 0.00803379 10.2574 0.00803388 10.2574 0.00803388C7.64529 -0.0216712 5.03379 0.108979 2.43768 0.399248C2.01978 0.515125 1.63702 0.732435 1.32342 1.03185C1.0153 1.32817 0.792112 1.69358 0.675524 2.09395C0.395456 3.602 0.25938 5.13323 0.26913 6.667C0.259136 8.19939 0.394879 9.73012 0.675524 11.24C0.789614 11.6387 1.01197 12.0025 1.32092 12.2963C1.62988 12.5901 2.01463 12.8024 2.43768 12.9148C4.02245 13.326 10.2574 13.326 10.2574 13.326C12.8729 13.3557 15.4877 13.2251 18.0872 12.9347C18.5051 12.8268 18.8886 12.6143 19.2014 12.3171C19.5056 12.0289 19.7258 11.6635 19.8385 11.26C20.1259 9.75256 20.2656 8.22069 20.2557 6.68614C20.2773 5.1451 20.1378 3.60601 19.8393 2.09395V2.09479ZM8.26544 9.51704V3.81779L13.4786 6.66783L8.26544 9.51704Z" fill="#2C2E34"/>
</svg>
