<svg width="47" height="44" viewBox="0 0 47 44" fill="none" xmlns="http://www.w3.org/2000/svg">
<path d="M45.6942 31.1274C42.9411 34.3832 39.509 36.9973 35.6388 38.7865C31.7686 40.5758 27.5538 41.4968 23.2901 41.485C19.0263 41.4732 14.8167 40.5288 10.9564 38.7182C7.09616 36.9076 3.67867 34.2745 0.94357 31.0036L3.53984 28.8326C5.95832 31.7249 8.98019 34.0532 12.3936 35.6542C15.807 37.2552 19.5292 38.0902 23.2994 38.1007C27.0696 38.1111 30.7965 37.2967 34.2187 35.7146C37.6409 34.1325 40.6756 31.821 43.11 28.9421L45.6942 31.1274Z" fill="#375EFF"/>
<path d="M12.6973 5.57324C14.4493 5.57324 15.9777 5.91807 17.2825 6.60771C18.5872 7.29736 19.5937 8.32251 20.302 9.68316C21.0289 11.0252 21.3924 12.6561 21.3924 14.5759V25.4239H17.7578V20.3913H7.58084V25.4239H4.00214V14.5759C4.00214 12.6561 4.35628 11.0252 5.06456 9.68316C5.79149 8.32251 6.80732 7.29736 8.11205 6.60771C9.41679 5.91807 10.9452 5.57324 12.6973 5.57324ZM17.7578 17.3438V14.2404C17.7578 12.4324 17.3104 11.0718 16.4158 10.1585C15.5211 9.2265 14.2723 8.76052 12.6693 8.76052C11.0663 8.76052 9.81753 9.2265 8.92285 10.1585C8.02818 11.0718 7.58084 12.4324 7.58084 14.2404V17.3438H17.7578Z" fill="#375EFF"/>
<path d="M40.6797 25.4239L36.6816 19.6923C36.5139 19.711 36.2622 19.7203 35.9267 19.7203H31.5093V25.4239H27.8747V5.85283H35.9267C37.6229 5.85283 39.0954 6.13241 40.3442 6.69159C41.6117 7.25076 42.5809 8.05224 43.2519 9.09603C43.9229 10.1398 44.2584 11.3793 44.2584 12.8145C44.2584 14.287 43.8949 15.5545 43.168 16.6169C42.4597 17.6793 41.4346 18.4715 40.0926 18.9934L44.5939 25.4239H40.6797ZM40.5958 12.8145C40.5958 11.5657 40.1858 10.6058 39.3656 9.93479C38.5455 9.26378 37.3433 8.92828 35.759 8.92828H31.5093V16.7287H35.759C37.3433 16.7287 38.5455 16.3932 39.3656 15.7222C40.1858 15.0326 40.5958 14.0633 40.5958 12.8145Z" fill="#375EFF"/>
</svg>
